<svg width="60" height="60" viewBox="0 0 60 60" fill="none" xmlns="http://www.w3.org/2000/svg">
<path d="M41.6091 50.5H40.6399L42.3899 43.5H43.3591L41.6091 50.5Z" stroke="#56CCF2" stroke-linecap="square" stroke-linejoin="round"/>
<path d="M27.6091 50.5H26.6399L28.3899 43.5H29.3591L27.6091 50.5Z" stroke="#56CCF2" stroke-linecap="square" stroke-linejoin="round"/>
<path d="M35.6091 47.5H34.6399L36.3899 40.5H37.3591L35.6091 47.5Z" stroke="#56CCF2" stroke-linecap="square" stroke-linejoin="round"/>
<path d="M21.6091 47.5H20.6399L22.3899 40.5H23.3591L21.6091 47.5Z" stroke="#56CCF2" stroke-linecap="square" stroke-linejoin="round"/>
<path fill-rule="evenodd" clip-rule="evenodd" d="M42.5388 18.8939C44.1768 18.0029 46.0329 17.5002 47.9995 17.5002C54.6269 17.5002 59.9995 23.2088 59.9995 30.2506C59.9995 37.2924 54.6269 43.001 47.9995 43.001H27.9995H7.99951C3.58123 43.001 -0.000488281 39.1953 -0.000488281 34.5007C-0.000488281 29.8062 3.58123 26.0005 7.99951 26.0005C9.47181 26.0005 10.8512 26.4231 12.0362 27.1603C12.0119 26.7771 11.9995 26.3903 11.9995 26.0005C11.9995 16.6114 19.163 9 27.9995 9C34.4483 9 40.0061 13.0538 42.5388 18.8939Z" fill="url(#paint0_linear_5_519)"/>
<defs>
<linearGradient id="paint0_linear_5_519" x1="29.9995" y1="47.2498" x2="29.9993" y2="8.99896" gradientUnits="userSpaceOnUse">
<stop stop-color="#C6C2C2"/>
<stop offset="1" stop-color="white"/>
</linearGradient>
</defs>
</svg>
